HIERARCHY
ROOT hip
{
  OFFSET 5.51535 103.731 -2.80141
  CHANNELS 6 Xposition Yposition Zposition Zrotation Xrotation Yrotation
  JOINT abdomen
  {
    OFFSET 0 -1.186 -1.5018
    CHANNELS 6 Xposition Yposition Zposition Zrotation Xrotation Yrotation
    JOINT abdomen2
    {
      OFFSET 0 9.964 0.2134
      CHANNELS 6 Xposition Yposition Zposition Zrotation Xrotation Yrotation
      JOINT chest
      {
        OFFSET 0 13.134 -3.2573
        CHANNELS 6 Xposition Yposition Zposition Zrotation Xrotation Yrotation
        JOINT neck
        {
          OFFSET 0 20.686 -1.6905
          CHANNELS 6 Xposition Yposition Zposition Zrotation Xrotation Yrotation
          JOINT head
          {
            OFFSET 0 7.23801 -0.1237
            CHANNELS 6 Xposition Yposition Zposition Zrotation Xrotation Yrotation
            End Site
            {
              OFFSET 0 0 0
            }
          }
        }
        JOINT lCollar
        {
          OFFSET 1.7069 20.075 5.0056
          CHANNELS 6 Xposition Yposition Zposition Zrotation Xrotation Yrotation
          JOINT lShldr
          {
            OFFSET 13.6458 -0.0470195 -4.849
            CHANNELS 6 Xposition Yposition Zposition Zrotation Xrotation Yrotation
            JOINT lForeArm
            {
              OFFSET 28.3255 -0.97589 2.2888
              CHANNELS 6 Xposition Yposition Zposition Zrotation Xrotation Yrotation
              JOINT lHand
              {
                OFFSET 22.1583 -0.529998 10.8316
                CHANNELS 6 Xposition Yposition Zposition Zrotation Xrotation Yrotation
                JOINT lThumb1
                {
                  OFFSET 0.786 0.111997 2.5817
                  CHANNELS 6 Xposition Yposition Zposition Zrotation Xrotation Yrotation
                  JOINT lThumb2
                  {
                    OFFSET 0.360097 -0.877999 4.2331
                    CHANNELS 6 Xposition Yposition Zposition Zrotation Xrotation Yrotation
                    JOINT lThumb2_End
                    {
                      OFFSET 1.8127 -1.21601 2.2227
                      CHANNELS 6 Xposition Yposition Zposition Zrotation Xrotation Yrotation
                      End Site
                      {
                        OFFSET 0.0180981 -0.012195 0.0222007
                      }
                    }
                  }
                }
                JOINT lCarpal1
                {
                  OFFSET 0.9571 1.114 1.7695
                  CHANNELS 6 Xposition Yposition Zposition Zrotation Xrotation Yrotation
                  JOINT lIndex1
                  {
                    OFFSET 4.12461 0.486992 4.1451
                    CHANNELS 6 Xposition Yposition Zposition Zrotation Xrotation Yrotation
                    JOINT lIndex2
                    {
                      OFFSET 3.4052 -1.45401 2.7682
                      CHANNELS 6 Xposition Yposition Zposition Zrotation Xrotation Yrotation
                      JOINT lIndex2_End
                      {
                        OFFSET 1.45309 -1.79499 1.2713
                        CHANNELS 6 Xposition Yposition Zposition Zrotation Xrotation Yrotation
                        End Site
                        {
                          OFFSET 0.0144979 -0.0179083 0.0126995
                        }
                      }
                    }
                  }
                  JOINT lMid1
                  {
                    OFFSET 5.6954 0.209987 2.1184
                    CHANNELS 6 Xposition Yposition Zposition Zrotation Xrotation Yrotation
                    JOINT lMid2
                    {
                      OFFSET 3.9766 -1.53999 2.3863
                      CHANNELS 6 Xposition Yposition Zposition Zrotation Xrotation Yrotation
                      JOINT lMid2_End
                      {
                        OFFSET 1.4042 -1.926 1.125
                        CHANNELS 6 Xposition Yposition Zposition Zrotation Xrotation Yrotation
                        End Site
                        {
                          OFFSET 0.013999 -0.0193044 0.011301
                        }
                      }
                    }
                  }
                }
                JOINT lCarpal2
                {
                  OFFSET 2.0956 0.66 -0.3894
                  CHANNELS 6 Xposition Yposition Zposition Zrotation Xrotation Yrotation
                  JOINT lRing1
                  {
                    OFFSET 5.0395 -0.090013 2.4971
                    CHANNELS 6 Xposition Yposition Zposition Zrotation Xrotation Yrotation
                    JOINT lRing2
                    {
                      OFFSET 3.7921 -1.55199 1.4806
                      CHANNELS 6 Xposition Yposition Zposition Zrotation Xrotation Yrotation
                      JOINT lRing2_End
                      {
                        OFFSET 1.4655 -1.808 0.9609
                        CHANNELS 6 Xposition Yposition Zposition Zrotation Xrotation Yrotation
                        End Site
                        {
                          OFFSET 0.0147015 -0.0181014 0.00959957
                        }
                      }
                    }
                  }
                  JOINT lPinky1
                  {
                    OFFSET 4.9141 -1.269 0.3591
                    CHANNELS 6 Xposition Yposition Zposition Zrotation Xrotation Yrotation
                    JOINT lPinky2
                    {
                      OFFSET 3.1477 -1.685 0.8462
                      CHANNELS 6 Xposition Yposition Zposition Zrotation Xrotation Yrotation
                      JOINT lPinky2_End
                      {
                        OFFSET 0.805498 -1.58501 0.795499
                        CHANNELS 6 Xposition Yposition Zposition Zrotation Xrotation Yrotation
                        End Site
                        {
                          OFFSET 0.00809703 -0.0157944 0.00799848
                        }
                      }
                    }
                  }
                }
              }
            }
          }
        }
        JOINT rCollar
        {
          OFFSET -1.7069 20.075 5.0056
          CHANNELS 6 Xposition Yposition Zposition Zrotation Xrotation Yrotation
          JOINT rShldr
          {
            OFFSET -13.6458 -0.0470107 -4.849
            CHANNELS 6 Xposition Yposition Zposition Zrotation Xrotation Yrotation
            JOINT rForeArm
            {
              OFFSET -28.3255 -0.975895 2.2888
              CHANNELS 6 Xposition Yposition Zposition Zrotation Xrotation Yrotation
              JOINT rHand
              {
                OFFSET -22.1583 -0.530007 10.8316
                CHANNELS 6 Xposition Yposition Zposition Zrotation Xrotation Yrotation
                JOINT rThumb1
                {
                  OFFSET -0.785997 0.112005 2.5817
                  CHANNELS 6 Xposition Yposition Zposition Zrotation Xrotation Yrotation
                  JOINT rThumb2
                  {
                    OFFSET -0.360106 -0.877994 4.2331
                    CHANNELS 6 Xposition Yposition Zposition Zrotation Xrotation Yrotation
                    JOINT rThumb2_End
                    {
                      OFFSET -1.8127 -1.216 2.2227
                      CHANNELS 6 Xposition Yposition Zposition Zrotation Xrotation Yrotation
                      End Site
                      {
                        OFFSET -0.0180972 -0.0121973 0.0222005
                      }
                    }
                  }
                }
                JOINT rCarpal1
                {
                  OFFSET -0.9571 1.114 1.7695
                  CHANNELS 6 Xposition Yposition Zposition Zrotation Xrotation Yrotation
                  JOINT rIndex1
                  {
                    OFFSET -4.1246 0.487011 4.1451
                    CHANNELS 6 Xposition Yposition Zposition Zrotation Xrotation Yrotation
                    JOINT rIndex2
                    {
                      OFFSET -3.4052 -1.45401 2.7682
                      CHANNELS 6 Xposition Yposition Zposition Zrotation Xrotation Yrotation
                      JOINT rIndex2_End
                      {
                        OFFSET -1.4531 -1.795 1.2713
                        CHANNELS 6 Xposition Yposition Zposition Zrotation Xrotation Yrotation
                        End Site
                        {
                          OFFSET -0.0145077 -0.0180048 0.0127017
                        }
                      }
                    }
                  }
                  JOINT rMid1
                  {
                    OFFSET -5.6954 0.210002 2.1184
                    CHANNELS 6 Xposition Yposition Zposition Zrotation Xrotation Yrotation
                    JOINT rMid2
                    {
                      OFFSET -3.9766 -1.54 2.3863
                      CHANNELS 6 Xposition Yposition Zposition Zrotation Xrotation Yrotation
                      JOINT rMid2_End
                      {
                        OFFSET -1.4042 -1.926 1.125
                        CHANNELS 6 Xposition Yposition Zposition Zrotation Xrotation Yrotation
                        End Site
                        {
                          OFFSET -0.0139948 -0.0192916 0.0112994
                        }
                      }
                    }
                  }
                }
                JOINT rCarpal2
                {
                  OFFSET -2.0956 0.66 -0.3894
                  CHANNELS 6 Xposition Yposition Zposition Zrotation Xrotation Yrotation
                  JOINT rRing1
                  {
                    OFFSET -5.03951 -0.0899879 2.4971
                    CHANNELS 6 Xposition Yposition Zposition Zrotation Xrotation Yrotation
                    JOINT rRing2
                    {
                      OFFSET -3.7921 -1.55201 1.4806
                      CHANNELS 6 Xposition Yposition Zposition Zrotation Xrotation Yrotation
                      JOINT rRing2_End
                      {
                        OFFSET -1.4655 -1.808 0.960901
                        CHANNELS 6 Xposition Yposition Zposition Zrotation Xrotation Yrotation
                        End Site
                        {
                          OFFSET -0.0146934 -0.0180999 0.00959832
                        }
                      }
                    }
                  }
                  JOINT rPinky1
                  {
                    OFFSET -4.91411 -1.26899 0.359202
                    CHANNELS 6 Xposition Yposition Zposition Zrotation Xrotation Yrotation
                    JOINT rPinky2
                    {
                      OFFSET -3.14769 -1.68501 0.846199
                      CHANNELS 6 Xposition Yposition Zposition Zrotation Xrotation Yrotation
                      JOINT rPinky2_End
                      {
                        OFFSET -0.805498 -1.585 0.7955
                        CHANNELS 6 Xposition Yposition Zposition Zrotation Xrotation Yrotation
                        End Site
                        {
                          OFFSET -0.00810035 -0.0158035 0.00800029
                        }
                      }
                    }
                  }
                }
              }
            }
          }
        }
      }
    }
  }
  JOINT lThigh
  {
    OFFSET 8.367 -8.2066 0.5982
    CHANNELS 6 Xposition Yposition Zposition Zrotation Xrotation Yrotation
    JOINT lShin
    {
      OFFSET 2.1923 -43.463 -0.4932
      CHANNELS 6 Xposition Yposition Zposition Zrotation Xrotation Yrotation
      JOINT lFoot
      {
        OFFSET 0.733301 -45.8593 -2.6451
        CHANNELS 6 Xposition Yposition Zposition Zrotation Xrotation Yrotation
        End Site
        {
          OFFSET 2.6618 -4.2699 12.3931
        }
      }
    }
  }
  JOINT rThigh
  {
    OFFSET -8.367 -8.2066 0.5982
    CHANNELS 6 Xposition Yposition Zposition Zrotation Xrotation Yrotation
    JOINT rShin
    {
      OFFSET -2.1923 -43.463 -0.4931
      CHANNELS 6 Xposition Yposition Zposition Zrotation Xrotation Yrotation
      JOINT rFoot
      {
        OFFSET -0.733299 -45.8593 -2.6451
        CHANNELS 6 Xposition Yposition Zposition Zrotation Xrotation Yrotation
        End Site
        {
          OFFSET -2.6618 -4.2699 12.3931
        }
      }
    }
  }
}
MOTION
Frames:	4
Frame Time:	0.0333333
36.3359 45.1092 89.3528 86.6391 -79.9801 -88.3787 -1.06491e-006 -1.186 -1.5018 -3.85496 -2.69369 -1.22783 -8.49601e-007 9.96399 0.213398 -7.7794 -5.29794 -2.63863 4.72938e-008 13.134 -3.2573 -7.77938 -5.29793 -2.63863 -4.92793e-005 20.6861 -1.69056 -7.64682 -17.6915 10.7891 2.62658e-006 7.23802 -0.123717 4.52223 -33.5079 6.89087 1.7069 20.075 5.0056 28.5629 1.00067 10.2941 13.6458 -0.0470099 -4.849 -42.7091 -22.0191 -81.5693 28.3255 -0.975899 2.2888 -37.145 -22.5852 -33.356 22.1583 -0.530005 10.8316 48.5464 -10.2766 -17.9221 0.786004 0.111996 2.5817 -9.21072 10.9372 -5.8417 0.3601 -0.878 4.2331 -7.24974 -0.0285252 -13.2446 1.8127 -1.21601 2.2227 -5.83115 -0.155088 -10.65 0.9571 1.114 1.7695 -6.36111e-015 -4.77083e-015 -3.18055e-015 4.1246 0.486991 4.1451 7.56124 -0.258057 -3.63436 3.4052 -1.454 2.7682 7.33975 -3.47656 -2.81677 1.4531 -1.79499 1.2713 2.02649 -0.916057 -0.815279 5.6954 0.209988 2.1184 10.0688 -1.62442 -3.14626 3.9766 -1.53999 2.3863 4.83053 -2.48237 -1.92139 1.4042 -1.926 1.125 13.2804 -7.27454 -4.82206 2.0956 0.66 -0.3894 -6.36111e-015 -4.77083e-015 -3.18055e-015 5.0395 -0.0900131 2.4971 12.8021 -5.79504 -1.93526 3.7921 -1.55199 1.4806 6.02898 -3.40178 -2.72492 1.4655 -1.808 0.9609 13.7459 -8.26269 -5.75564 4.9141 -1.269 0.359101 11.3246 -6.05184 2.85945 3.1477 -1.685 0.8462 14.0164 -8.97674 -5.69158 0.805498 -1.58501 0.795499 14.9408 -9.62883 -5.99755 -1.7069 20.075 5.0056 -23.5535 -0.312495 16.8059 -13.6458 -0.0470138 -4.849 49.8823 -27.8422 22.4105 -28.3255 -0.975896 2.28881 24.7602 1.36284 70.4206 -22.1583 -0.530015 10.8316 -73.8726 4.43885 -0.590217 -0.786002 0.112005 2.5817 -4.5115 4.93374 -16.1758 -0.360104 -0.877994 4.2331 -0.553844 -2.74312 4.60199 -1.81269 -1.216 2.2227 -3.23395 -0.152595 -2.26708 -0.9571 1.114 1.7695 1.59028e-015 -1.68967e-015 -0 -4.12461 0.487012 4.1451 1.27111 6.21771 -5.94859 -3.4052 -1.45401 2.7682 7.42398 2.39574 -1.19545 -1.4531 -1.795 1.2713 5.50929 1.79495 -0.858616 -5.6954 0.210001 2.1184 -3.26612 2.0961 0.28339 -3.9766 -1.54 2.3863 -1.58657 -0.600665 0.209748 -1.4042 -1.926 1.125 -2.90858 -1.10601 0.372164 -2.0956 0.66 -0.3894 1.59028e-015 -1.68967e-015 -0 -5.03951 -0.0899888 2.4971 -9.97047 -4.97491 1.62776 -3.7921 -1.55201 1.4806 -8.80529 -3.78097 1.30773 -1.4655 -1.808 0.960901 -9.56804 -4.11823 1.3941 -4.91411 -1.26899 0.359203 -11.883 -7.50753 2.44081 -3.1477 -1.68501 0.8462 -13.7394 -6.38101 1.56138 -0.805499 -1.585 0.795501 -12.1118 -5.60674 1.4561 8.367 -8.2066 0.5982 1.77583 -78.9845 1.45439 2.19251 -43.4631 -0.491932 179.817 67.2167 -177.635 0.733301 -45.8593 -2.6451 -4.59153 10.917 -10.9004 -8.367 -8.20659 0.5982 4.11722 -70.3096 6.48041 -2.18957 -43.4631 -0.50674 82.5941 74.0778 -75.5432 -0.73329 -45.8593 -2.64513 4.642 8.21974 13.5668 
37.138 44.9794 89.8737 91.078 -79.8289 -84.1999 -5.37112e-007 -1.186 -1.5018 -3.9327 -2.82204 -1.25521 -1.00356e-006 9.964 0.2134 -7.94045 -5.55048 -2.70626 7.56958e-007 13.134 -3.25731 -7.94046 -5.55046 -2.70626 5.20266e-008 20.686 -1.6905 -7.34159 -17.2083 10.3072 -1.25255e-006 7.23803 -0.123718 5.05766 -34.355 6.88812 1.7069 20.075 5.0056 28.431 1.06903 10.8984 13.6458 -0.0470097 -4.849 -42.7034 -22.701 -83.457 28.3255 -0.975899 2.2888 -36.1305 -24.5659 -31.6832 22.1583 -0.530004 10.8316 46.5741 -9.59504 -18.5201 0.786004 0.111996 2.5817 -9.23318 10.9772 -5.91193 0.360096 -0.878 4.2331 -7.29377 -0.0235765 -13.3253 1.8127 -1.21601 2.2227 -5.90778 -0.149901 -10.79 0.9571 1.114 1.7695 3.18055e-015 3.18055e-015 3.18055e-015 4.1246 0.486992 4.1451 7.58826 -0.303953 -3.74258 3.4052 -1.454 2.7682 7.33171 -3.47252 -2.81391 1.4531 -1.79499 1.2713 2.01759 -0.911959 -0.811749 5.6954 0.209988 2.1184 10.1361 -1.66151 -3.17166 3.9766 -1.53999 2.3863 4.84057 -2.48776 -1.92518 1.4042 -1.926 1.125 13.3291 -7.30366 -4.83694 2.0956 0.66 -0.3894 3.18055e-015 3.18055e-015 3.18055e-015 5.0395 -0.0900141 2.4971 12.8747 -5.80955 -1.91369 3.7921 -1.55199 1.4806 6.02598 -3.4 -2.72365 1.4655 -1.808 0.9609 13.8339 -8.32098 -5.78687 4.9141 -1.269 0.359101 11.3375 -6.02212 2.97814 3.1477 -1.685 0.8462 14.0278 -8.98473 -5.69542 0.805498 -1.58501 0.7955 14.9833 -9.659 -6.01143 -1.7069 20.075 5.0056 -23.8909 -0.316059 15.8831 -13.6458 -0.0470095 -4.84901 49.844 -27.7678 23.8113 -28.3255 -0.975901 2.2888 24.5016 0.784556 70.2554 -22.1583 -0.530012 10.8316 -73.2628 4.66997 -2.1213 -0.786001 0.112005 2.5817 -4.51143 4.93353 -16.1758 -0.360105 -0.877993 4.2331 -0.553847 -2.74312 4.60198 -1.8127 -1.216 2.2227 -3.23397 -0.152566 -2.26707 -0.9571 1.114 1.7695 -8.38642e-031 7.55382e-015 6.36111e-015 -4.12461 0.487011 4.1451 1.27111 6.21774 -5.94859 -3.4052 -1.45401 2.7682 7.42397 2.39578 -1.19544 -1.4531 -1.795 1.2713 5.5094 1.795 -0.858644 -5.6954 0.210001 2.1184 -3.26611 2.09611 0.283376 -3.9766 -1.54 2.3863 -1.58657 -0.600651 0.20976 -1.4042 -1.926 1.125 -2.90854 -1.10609 0.372071 -2.0956 0.66 -0.3894 -8.38642e-031 7.55382e-015 6.36111e-015 -5.03951 -0.0899883 2.4971 -9.97046 -4.97491 1.62774 -3.7921 -1.55201 1.4806 -8.8053 -3.78096 1.30775 -1.4655 -1.808 0.9609 -9.56803 -4.11818 1.39419 -4.91411 -1.26899 0.359202 -11.883 -7.50751 2.4408 -3.1477 -1.68501 0.846198 -13.7394 -6.38098 1.56141 -0.8055 -1.585 0.7955 -12.1116 -5.6067 1.45601 8.367 -8.2066 0.598211 8.27864 -80.7422 7.64248 2.19172 -43.4631 -0.495956 179.849 63.8463 -177.546 0.733305 -45.8593 -2.6451 -4.48134 10.7598 -11.1445 -8.367 -8.2066 0.598213 7.34814 -71.6158 9.52728 -2.1923 -43.4631 -0.493082 86.6741 74.0609 -79.5181 -0.733303 -45.8593 -2.6451 4.47008 8.02524 13.8789 
37.8297 44.8365 90.3114 96.4856 -79.5493 -78.9358 -1.09168e-006 -1.186 -1.5018 -3.98515 -2.93473 -1.35003 -5.49519e-007 9.964 0.213399 -8.05388 -5.76746 -2.90683 4.43301e-007 13.134 -3.2573 -8.05388 -5.76744 -2.90683 -1.47861e-005 20.6861 -1.69062 -7.1431 -17.3624 9.84593 1.65749e-008 7.23803 -0.123714 5.77526 -34.9983 7.01336 1.7069 20.075 5.0056 28.0287 1.1684 11.8528 13.6458 -0.047013 -4.849 -42.6511 -23.4991 -85.6014 28.3255 -0.975904 2.2888 -34.7079 -26.171 -29.6629 22.1583 -0.530001 10.8316 44.6009 -9.36072 -18.8033 0.786003 0.111997 2.5817 -9.25378 11.0157 -5.97894 0.360097 -0.878 4.2331 -7.33451 -0.0189087 -13.3999 1.8127 -1.21601 2.2227 -5.98436 -0.144532 -10.9299 0.9571 1.114 1.7695 3.18055e-015 -4.77083e-015 3.18055e-015 4.1246 0.486992 4.1451 7.62205 -0.351864 -3.85269 3.4052 -1.454 2.7682 7.32366 -3.46847 -2.81105 1.4531 -1.79499 1.2713 2.01101 -0.908924 -0.809122 5.6954 0.209987 2.1184 10.207 -1.70108 -3.1985 3.9766 -1.53999 2.3863 4.85063 -2.49316 -1.92901 1.4042 -1.926 1.125 13.3779 -7.3328 -4.85179 2.0956 0.66 -0.3894 3.18055e-015 -4.77083e-015 3.18055e-015 5.0395 -0.0900135 2.4971 12.9473 -5.82405 -1.89209 3.7921 -1.55199 1.4806 6.02298 -3.39821 -2.72236 1.4655 -1.808 0.9609 13.923 -8.38022 -5.81847 4.9141 -1.269 0.3591 11.3522 -5.99571 3.09383 3.1477 -1.685 0.846201 14.0391 -8.99273 -5.69925 0.805498 -1.58501 0.795499 15.0259 -9.68918 -6.02528 -1.7069 20.075 5.00559 -24.2636 -0.3251 14.9081 -13.6458 -0.0470092 -4.84901 49.8825 -27.6577 25.3871 -28.3255 -0.975894 2.28879 24.197 0.121624 70.0744 -22.1583 -0.530019 10.8316 -72.6287 4.76533 -3.52921 -0.786001 0.112004 2.5817 -4.51142 4.93353 -16.1758 -0.360108 -0.877993 4.2331 -0.553856 -2.74311 4.60198 -1.8127 -1.216 2.2227 -3.234 -0.152514 -2.26704 -0.9571 1.114 1.7695 7.95139e-016 -1.19271e-015 -6.36111e-015 -4.12461 0.487011 4.1451 1.27107 6.21784 -5.94857 -3.4052 -1.45401 2.7682 7.42394 2.39587 -1.19542 -1.4531 -1.795 1.2713 5.50952 1.79503 -0.858652 -5.6954 0.210001 2.1184 -3.26611 2.09611 0.283398 -3.9766 -1.54 2.3863 -1.58659 -0.600614 0.209772 -1.4042 -1.926 1.125 -2.90855 -1.10608 0.372056 -2.0956 0.66 -0.3894 7.95139e-016 -1.19271e-015 -6.36111e-015 -5.03951 -0.0899884 2.4971 -9.97045 -4.97491 1.62776 -3.7921 -1.55201 1.4806 -8.80532 -3.7809 1.3078 -1.4655 -1.808 0.960901 -9.5679 -4.11816 1.39408 -4.91411 -1.26899 0.359201 -11.883 -7.50752 2.4408 -3.1477 -1.68501 0.846201 -13.7394 -6.38093 1.5615 -0.805499 -1.585 0.795501 -12.1116 -5.60666 1.45607 8.367 -8.2066 0.598199 15.2546 -82.5498 14.2429 2.19209 -43.463 -0.494135 179.886 60.6528 -177.452 0.733302 -45.8593 -2.64509 -4.56781 10.625 -11.2398 -8.367 -8.2066 0.598211 10.6759 -73.2527 12.7043 -2.1923 -43.463 -0.493111 91.1201 73.9348 -83.8873 -0.7333 -45.8593 -2.6451 4.46649 7.58157 13.7285 
38.4452 44.6778 90.6557 101.516 -79.2376 -74.1494 -7.01046e-007 -1.186 -1.5018 -4.03966 -3.07198 -1.38059 9.68542e-007 9.964 0.213399 -8.16941 -6.03791 -2.98105 2.13331e-006 13.134 -3.2573 -8.16941 -6.03793 -2.98106 -8.19967e-006 20.6861 -1.69063 -6.9725 -17.5711 9.36678 -3.43462e-006 7.23803 -0.12372 6.34826 -35.6614 7.21307 1.7069 20.075 5.0056 27.907 1.25891 12.6697 13.6458 -0.0470075 -4.84901 -42.6851 -23.9097 -87.5438 28.3255 -0.975901 2.2888 -33.0545 -27.6287 -27.7804 22.1583 -0.530003 10.8316 42.7108 -9.26297 -18.9402 0.786002 0.111997 2.5817 -9.27432 11.0542 -6.04593 0.360097 -0.878 4.2331 -7.37525 -0.0142131 -13.4746 1.8127 -1.21601 2.2227 -6.05875 -0.139126 -11.0659 0.9571 1.114 1.7695 0 0 -0 4.1246 0.486992 4.1451 7.66337 -0.402006 -3.96495 3.4052 -1.45401 2.7682 7.31561 -3.46443 -2.80817 1.4531 -1.79499 1.2713 2.00441 -0.905882 -0.806524 5.6954 0.209987 2.1184 10.2778 -1.74066 -3.22532 3.9766 -1.53999 2.3863 4.86395 -2.50029 -1.93408 1.4042 -1.926 1.125 13.4327 -7.36556 -4.86843 2.0956 0.66 -0.3894 0 0 -0 5.0395 -0.0900137 2.4971 13.0211 -5.84118 -1.87344 3.7921 -1.55199 1.4806 6.02136 -3.39725 -2.72167 1.4655 -1.808 0.960901 14.0123 -8.43948 -5.84995 4.9141 -1.269 0.359102 11.367 -5.96927 3.20951 3.1477 -1.685 0.8462 14.0541 -9.00324 -5.70429 0.805499 -1.58501 0.795499 15.0684 -9.71936 -6.03911 -1.7069 20.075 5.0056 -24.6572 -0.335928 13.9131 -13.6458 -0.0470075 -4.849 50.023 -27.4373 26.5502 -28.3255 -0.975898 2.2888 23.8665 -0.473878 70.0572 -22.1583 -0.530013 10.8316 -71.9722 4.90593 -4.77058 -0.786001 0.112005 2.5817 -4.51143 4.93353 -16.1758 -0.360105 -0.877993 4.2331 -0.553871 -2.7431 4.60199 -1.8127 -1.216 2.2227 -3.23394 -0.152605 -2.2671 -0.9571 1.114 1.7695 -3.97569e-016 4.77083e-015 3.18055e-015 -4.12461 0.48701 4.1451 1.27115 6.21767 -5.94857 -3.4052 -1.45401 2.7682 7.42403 2.39571 -1.19546 -1.4531 -1.795 1.2713 5.50964 1.79507 -0.858679 -5.6954 0.210003 2.1184 -3.2661 2.09611 0.283363 -3.9766 -1.54 2.3863 -1.58661 -0.600527 0.209827 -1.4042 -1.926 1.125 -2.90854 -1.10609 0.372071 -2.0956 0.66 -0.3894 -3.97569e-016 4.77083e-015 3.18055e-015 -5.03951 -0.0899886 2.49711 -9.97045 -4.97491 1.62775 -3.7921 -1.55201 1.4806 -8.80528 -3.781 1.30769 -1.4655 -1.808 0.960901 -9.5679 -4.11811 1.39416 -4.91411 -1.26899 0.359202 -11.883 -7.50748 2.4408 -3.1477 -1.68501 0.8462 -13.7393 -6.38103 1.56135 -0.8055 -1.585 0.795501 -12.1115 -5.60663 1.45599 8.367 -8.2066 0.5982 27.1955 -83.9485 26.0942 2.19254 -43.4631 -0.492221 179.917 57.8491 -177.334 0.733307 -45.8593 -2.64511 -4.86634 10.6322 -11.1062 -8.367 -8.20659 0.5982 15.0707 -74.5308 17.1969 -2.1923 -43.4631 -0.493086 93.6617 73.895 -86.3513 -0.7333 -45.8593 -2.6451 4.94303 7.725 13.4144 
